<?xml version="1.0" encoding="iso-8859-1"?>
<!-- Uploaded to: SVG Repo, www.svgrepo.com, Generator: SVG Repo Mixer Tools -->
<svg fill="#000000" height="800px" width="800px" version="1.1" id="Layer_1" xmlns="http://www.w3.org/2000/svg" xmlns:xlink="http://www.w3.org/1999/xlink" 
	 viewBox="0 0 512 512" xml:space="preserve">
<g>
	<g>
		<path d="M232.727,197.818h-34.909v-34.909c0-6.982-4.655-11.636-11.636-11.636h-46.545c-6.982,0-11.636,4.655-11.636,11.636
			v34.909H93.091c-6.982,0-11.636,4.655-11.636,11.636V256c0,6.982,4.655,11.636,11.636,11.636H128v34.909
			c0,6.982,4.655,11.636,11.636,11.636h46.545c6.982,0,11.636-4.655,11.636-11.636s-4.655-11.636-11.636-11.636h-34.909V256
			c0-6.982-4.655-11.636-11.636-11.636h-34.909v-23.273h34.909c6.982,0,11.636-4.655,11.636-11.636v-34.909h23.273v34.909
			c0,6.982,4.655,11.636,11.636,11.636h34.909v23.273h-34.909c-6.982,0-11.636,4.655-11.636,11.636s4.655,11.636,11.636,11.636
			h46.545c6.982,0,11.636-4.655,11.636-11.636v-46.545C244.364,202.473,239.709,197.818,232.727,197.818z"/>
	</g>
</g>
<g>
	<g>
		<circle cx="139.636" cy="395.636" r="11.636"/>
	</g>
</g>
<g>
	<g>
		<circle cx="407.273" cy="395.636" r="11.636"/>
	</g>
</g>
<g>
	<g>
		<path d="M498.036,251.345l-33.745-25.6l-33.745-112.873c-2.327-4.655-6.982-8.145-11.636-8.145h-11.636V93.091
			c0-19.782-15.127-34.909-34.909-34.909s-34.909,15.127-34.909,34.909v11.636h-23.273c-6.982,0-11.636,4.655-11.636,11.636V384
			H196.655c-5.818-26.764-29.091-46.545-57.018-46.545c-27.927,0-51.2,19.782-57.018,46.545H34.909
			c-6.982,0-11.636-4.655-11.636-11.636V139.636c0-6.982,4.655-11.636,11.636-11.636h232.727c6.982,0,11.636-4.655,11.636-11.636
			s-4.655-11.636-11.636-11.636H34.909C15.127,104.727,0,119.855,0,139.636v232.727c0,19.782,15.127,34.909,34.909,34.909h47.709
			c5.818,26.764,29.091,46.545,57.018,46.545c27.927,0,51.2-19.782,57.018-46.545h117.527c6.982,0,11.636-4.655,11.636-11.636V128
			h84.945l27.927,93.091h-23.273l3.491-6.982c2.327-5.818,0-12.8-4.655-15.127c-5.818-2.327-12.8,0-15.127,4.655l-10.473,17.455
			h-27.927c-6.982,0-11.636,4.655-11.636,11.636s4.655,11.636,11.636,11.636h89.6l33.745,25.6c2.327,2.327,4.655,5.818,4.655,9.309
			v93.091c0,6.982-4.655,11.636-11.636,11.636h-12.8c-5.818-26.764-29.091-46.545-57.018-46.545
			c-32.582,0-58.182,25.6-58.182,58.182c0,32.582,25.6,58.182,58.182,58.182c27.927,0,51.2-19.782,57.018-46.545h12.8
			c19.782,0,34.909-15.127,34.909-34.909v-93.091C512,268.8,507.345,258.327,498.036,251.345z M139.636,430.545
			c-19.782,0-34.909-15.127-34.909-34.909c0-19.782,15.127-34.909,34.909-34.909c19.782,0,34.909,15.127,34.909,34.909
			C174.545,415.418,159.418,430.545,139.636,430.545z M384,104.727h-23.273V93.091c0-6.982,4.655-11.636,11.636-11.636
			S384,86.109,384,93.091V104.727z M407.273,430.545c-19.782,0-34.909-15.127-34.909-34.909c0-19.782,15.127-34.909,34.909-34.909
			c19.782,0,34.909,15.127,34.909,34.909C442.182,415.418,427.055,430.545,407.273,430.545z"/>
	</g>
</g>
</svg>